# Blender v2.93.0 OBJ File: 'Octa.blend'
# www.blender.org
mtllib Octa.mtl
o Cube_Cube.002
v 0.000000 -1.000000 0.000000
v 0.000000 0.000000 1.000000
v -1.000000 0.000000 0.000000
v 0.000000 1.000000 0.000000
v 0.000000 0.000000 -1.000000
v 1.000000 0.000000 0.000000
vt 0.124051 0.732448
vt 0.015249 0.510003
vt 0.235314 0.509535
vt 0.240652 0.758514
vt 0.123554 0.980146
vt 0.005756 0.758509
vt 0.874293 0.743431
vt 0.987720 0.506852
vt 0.761167 0.511244
vt 0.873460 0.996922
vt 0.762593 0.761497
vt 0.991424 0.757340
vt 0.371063 0.746509
vt 0.484044 0.510981
vt 0.256805 0.507066
vt 0.374866 0.990742
vt 0.252596 0.762089
vt 0.482379 0.760106
vt 0.628362 0.738678
vt 0.740233 0.514298
vt 0.509857 0.512830
vt 0.629317 0.992104
vt 0.514998 0.756805
vt 0.741859 0.759796
vn -0.5774 -0.5774 0.5774
vn -0.5774 0.5774 0.5774
vn -0.5774 -0.5774 -0.5774
vn -0.5774 0.5774 -0.5774
vn 0.5774 -0.5774 0.5774
vn 0.5774 0.5774 0.5774
vn 0.5774 -0.5774 -0.5774
vn 0.5774 0.5774 -0.5774
usemtl Material.002
s off
f 1/1/1 2/2/1 3/3/1
f 2/4/2 4/5/2 3/6/2
f 1/7/3 3/8/3 5/9/3
f 4/10/4 5/11/4 3/12/4
f 1/13/5 6/14/5 2/15/5
f 4/16/6 2/17/6 6/18/6
f 1/19/7 5/20/7 6/21/7
f 4/22/8 6/23/8 5/24/8
