# Blender v2.93.0 OBJ File: 'Octa.blend'
# www.blender.org
mtllib Octa2.mtl
o Cube_Cube.002
v 0.000000 -1.000000 0.000000
v 0.000000 0.000000 1.000000
v -1.000000 0.000000 0.000000
v 0.000000 1.000000 0.000000
v 0.000000 0.000000 -1.000000
v 1.000000 0.000000 0.000000
vt 0.250030 0.624970
vt 0.250030 0.750000
vt 0.125000 0.624970
vt 0.499970 0.000000
vt 0.625000 0.125030
vt 0.625000 0.125030
vt 0.250030 0.500000
vt 0.499970 0.250000
vt 0.499970 0.250000
vt 0.375000 0.624970
vt 0.625000 0.875030
vt 0.625000 0.875030
vt 0.499970 0.750000
vt 0.625000 0.374970
vt 0.499970 0.500000
vt 0.499970 0.500000
vn -0.5774 -0.5774 0.5774
vn -0.5774 0.5774 0.5774
vn -0.5774 -0.5774 -0.5774
vn -0.5774 0.5774 -0.5774
vn 0.5774 -0.5774 0.5774
vn 0.5774 0.5774 0.5774
vn 0.5774 -0.5774 -0.5774
vn 0.5774 0.5774 -0.5774
usemtl Material.002
s off
f 1/1/1 2/2/1 3/3/1
f 2/4/2 4/5/2 3/6/2
f 1/1/3 3/3/3 5/7/3
f 4/5/4 5/8/4 3/9/4
f 1/1/5 6/10/5 2/2/5
f 4/11/6 2/12/6 6/13/6
f 1/1/7 5/7/7 6/10/7
f 4/14/8 6/15/8 5/16/8
